<mxfile host="app.diagrams.net" modified="2024-07-12T02:39:44.865Z" agent="Mozilla/5.0 (Windows NT 10.0; Win64; x64) AppleWebKit/537.36 (KHTML, like Gecko) Chrome/126.0.0.0 Safari/537.36 Edg/126.0.0.0" etag="ssQ7nzYmOO8ugv9Iaf-q" version="24.6.4" type="device">
  <diagram id="eEjC7y4H5LMK34-yhGm8" name="第 1 页">
    <mxGraphModel dx="986" dy="433" grid="1" gridSize="10" guides="1" tooltips="1" connect="1" arrows="1" fold="1" page="1" pageScale="1" pageWidth="827" pageHeight="1169" math="0" shadow="0">
      <root>
        <mxCell id="0" />
        <mxCell id="1" parent="0" />
        <mxCell id="xJ5KSiIBrwhH0-QOq2p5-1" value="" style="rounded=0;whiteSpace=wrap;html=1;" vertex="1" parent="1">
          <mxGeometry x="80" y="110" width="780" height="370" as="geometry" />
        </mxCell>
        <mxCell id="xJ5KSiIBrwhH0-QOq2p5-2" value="FLow框架" style="text;html=1;align=center;verticalAlign=middle;whiteSpace=wrap;rounded=0;" vertex="1" parent="1">
          <mxGeometry x="80" y="110" width="90" height="50" as="geometry" />
        </mxCell>
      </root>
    </mxGraphModel>
  </diagram>
</mxfile>
